<svg xmlns="http://www.w3.org/2000/svg" xmlns:xlink="http://www.w3.org/1999/xlink" width="48" zoomAndPan="magnify" viewBox="0 0 36 36.000001" height="48" preserveAspectRatio="xMidYMid meet" version="1.0"><defs><clipPath id="0e1071c333"><path d="M 25.734375 14.300781 L 32.011719 14.300781 L 32.011719 20.722656 L 25.734375 20.722656 Z M 25.734375 14.300781 " clip-rule="nonzero"/></clipPath><clipPath id="11251376ec"><path d="M 0.734375 0.300781 L 7.011719 0.300781 L 7.011719 6.722656 L 0.734375 6.722656 Z M 0.734375 0.300781 " clip-rule="nonzero"/></clipPath><clipPath id="e25414eb95"><rect x="0" width="8" y="0" height="7"/></clipPath><clipPath id="1d499c200d"><path d="M 14.863281 25.101562 L 21.285156 25.101562 L 21.285156 31.523438 L 14.863281 31.523438 Z M 14.863281 25.101562 " clip-rule="nonzero"/></clipPath><clipPath id="c4294f757b"><path d="M 0.863281 0.101562 L 7.285156 0.101562 L 7.285156 6.523438 L 0.863281 6.523438 Z M 0.863281 0.101562 " clip-rule="nonzero"/></clipPath><clipPath id="672364832a"><rect x="0" width="8" y="0" height="7"/></clipPath><clipPath id="cfc707bc2d"><path d="M 3.988281 3.503906 L 10.265625 3.503906 L 10.265625 9.925781 L 3.988281 9.925781 Z M 3.988281 3.503906 " clip-rule="nonzero"/></clipPath><clipPath id="4e756617b6"><path d="M 0.988281 0.503906 L 7.265625 0.503906 L 7.265625 6.925781 L 0.988281 6.925781 Z M 0.988281 0.503906 " clip-rule="nonzero"/></clipPath><clipPath id="09580e60b2"><rect x="0" width="8" y="0" height="7"/></clipPath><clipPath id="dc47fca6cb"><path d="M 14.863281 3.503906 L 21.136719 3.503906 L 21.136719 9.925781 L 14.863281 9.925781 Z M 14.863281 3.503906 " clip-rule="nonzero"/></clipPath><clipPath id="82f1eaa6e9"><path d="M 0.863281 0.503906 L 7.136719 0.503906 L 7.136719 6.925781 L 0.863281 6.925781 Z M 0.863281 0.503906 " clip-rule="nonzero"/></clipPath><clipPath id="ff8c76c9da"><rect x="0" width="8" y="0" height="7"/></clipPath><clipPath id="5a75e9f605"><path d="M 25.734375 25.101562 L 32.011719 25.101562 L 32.011719 31.523438 L 25.734375 31.523438 Z M 25.734375 25.101562 " clip-rule="nonzero"/></clipPath><clipPath id="9be897bb83"><path d="M 0.734375 0.101562 L 7.011719 0.101562 L 7.011719 6.523438 L 0.734375 6.523438 Z M 0.734375 0.101562 " clip-rule="nonzero"/></clipPath><clipPath id="9877c38ffd"><rect x="0" width="8" y="0" height="7"/></clipPath><clipPath id="55658457c6"><path d="M 3.917969 14.300781 L 10.265625 14.300781 L 10.265625 20.722656 L 3.917969 20.722656 Z M 3.917969 14.300781 " clip-rule="nonzero"/></clipPath><clipPath id="65d76be242"><path d="M 0.917969 0.300781 L 7.265625 0.300781 L 7.265625 6.722656 L 0.917969 6.722656 Z M 0.917969 0.300781 " clip-rule="nonzero"/></clipPath><clipPath id="bae0eeb817"><rect x="0" width="8" y="0" height="7"/></clipPath></defs><g clip-path="url(#0e1071c333)"><g transform="matrix(1, 0, 0, 1, 25, 14)"><g clip-path="url(#e25414eb95)"><g clip-path="url(#11251376ec)"><path fill="#ffffff" d="M 0.734375 0.300781 L 7.011719 0.300781 L 7.011719 6.726562 L 0.734375 6.726562 Z M 0.734375 0.300781 " fill-opacity="1" fill-rule="nonzero"/></g></g></g></g><g clip-path="url(#1d499c200d)"><g transform="matrix(1, 0, 0, 1, 14, 25)"><g clip-path="url(#672364832a)"><g clip-path="url(#c4294f757b)"><path fill="#ffffff" d="M 0.863281 0.101562 L 7.285156 0.101562 L 7.285156 6.523438 L 0.863281 6.523438 Z M 0.863281 0.101562 " fill-opacity="1" fill-rule="nonzero"/></g></g></g></g><g clip-path="url(#cfc707bc2d)"><g transform="matrix(1, 0, 0, 1, 3, 3)"><g clip-path="url(#09580e60b2)"><g clip-path="url(#4e756617b6)"><path fill="#ffffff" d="M 0.988281 0.503906 L 7.265625 0.503906 L 7.265625 6.925781 L 0.988281 6.925781 Z M 0.988281 0.503906 " fill-opacity="1" fill-rule="nonzero"/></g></g></g></g><g clip-path="url(#dc47fca6cb)"><g transform="matrix(1, 0, 0, 1, 14, 3)"><g clip-path="url(#ff8c76c9da)"><g clip-path="url(#82f1eaa6e9)"><path fill="#ffffff" d="M 0.863281 0.503906 L 7.136719 0.503906 L 7.136719 6.925781 L 0.863281 6.925781 Z M 0.863281 0.503906 " fill-opacity="1" fill-rule="nonzero"/></g></g></g></g><g clip-path="url(#5a75e9f605)"><g transform="matrix(1, 0, 0, 1, 25, 25)"><g clip-path="url(#9877c38ffd)"><g clip-path="url(#9be897bb83)"><path fill="#ffffff" d="M 0.734375 0.101562 L 7.011719 0.101562 L 7.011719 6.527344 L 0.734375 6.527344 Z M 0.734375 0.101562 " fill-opacity="1" fill-rule="nonzero"/></g></g></g></g><g clip-path="url(#55658457c6)"><g transform="matrix(1, 0, 0, 1, 3, 14)"><g clip-path="url(#bae0eeb817)"><g clip-path="url(#65d76be242)"><path fill="#ffffff" d="M 0.917969 0.300781 L 7.265625 0.300781 L 7.265625 6.726562 L 0.917969 6.726562 Z M 0.917969 0.300781 " fill-opacity="1" fill-rule="nonzero"/></g></g></g></g></svg>