<svg xmlns="http://www.w3.org/2000/svg" xmlns:xlink="http://www.w3.org/1999/xlink" width="48" zoomAndPan="magnify" viewBox="0 0 36 36.000001" height="48" preserveAspectRatio="xMidYMid meet" version="1.0"><defs><clipPath id="a84b7537ee"><path d="M 0.488281 0 L 35.511719 0 L 35.511719 35.027344 L 0.488281 35.027344 Z M 0.488281 0 " clip-rule="nonzero"/></clipPath><clipPath id="885c1fe136"><path d="M 0.488281 0 L 35.511719 0 L 35.511719 35.027344 L 0.488281 35.027344 Z M 0.488281 0 " clip-rule="nonzero"/></clipPath><clipPath id="e5529e4fac"><rect x="0" width="36" y="0" height="36"/></clipPath><clipPath id="11db34af02"><path d="M 25.734375 14.300781 L 32.011719 14.300781 L 32.011719 20.722656 L 25.734375 20.722656 Z M 25.734375 14.300781 " clip-rule="nonzero"/></clipPath><clipPath id="e690feaff5"><path d="M 0.734375 0.300781 L 7.011719 0.300781 L 7.011719 6.722656 L 0.734375 6.722656 Z M 0.734375 0.300781 " clip-rule="nonzero"/></clipPath><clipPath id="39ecbce875"><rect x="0" width="8" y="0" height="7"/></clipPath><clipPath id="59921fa293"><path d="M 14.863281 25.101562 L 21.285156 25.101562 L 21.285156 31.523438 L 14.863281 31.523438 Z M 14.863281 25.101562 " clip-rule="nonzero"/></clipPath><clipPath id="4849471ede"><path d="M 0.863281 0.101562 L 7.285156 0.101562 L 7.285156 6.523438 L 0.863281 6.523438 Z M 0.863281 0.101562 " clip-rule="nonzero"/></clipPath><clipPath id="26f1b17e9e"><rect x="0" width="8" y="0" height="7"/></clipPath><clipPath id="501bda9c00"><path d="M 3.988281 3.503906 L 10.265625 3.503906 L 10.265625 9.925781 L 3.988281 9.925781 Z M 3.988281 3.503906 " clip-rule="nonzero"/></clipPath><clipPath id="0ae8d55bf8"><path d="M 0.988281 0.503906 L 7.265625 0.503906 L 7.265625 6.925781 L 0.988281 6.925781 Z M 0.988281 0.503906 " clip-rule="nonzero"/></clipPath><clipPath id="eb53ed25a2"><rect x="0" width="8" y="0" height="7"/></clipPath><clipPath id="b6f369fdf2"><path d="M 14.863281 3.503906 L 21.136719 3.503906 L 21.136719 9.925781 L 14.863281 9.925781 Z M 14.863281 3.503906 " clip-rule="nonzero"/></clipPath><clipPath id="8c85c825b1"><path d="M 0.863281 0.503906 L 7.136719 0.503906 L 7.136719 6.925781 L 0.863281 6.925781 Z M 0.863281 0.503906 " clip-rule="nonzero"/></clipPath><clipPath id="444d9ffb8b"><rect x="0" width="8" y="0" height="7"/></clipPath><clipPath id="a51d5d9463"><path d="M 25.734375 25.101562 L 32.011719 25.101562 L 32.011719 31.523438 L 25.734375 31.523438 Z M 25.734375 25.101562 " clip-rule="nonzero"/></clipPath><clipPath id="6229320d52"><path d="M 0.734375 0.101562 L 7.011719 0.101562 L 7.011719 6.523438 L 0.734375 6.523438 Z M 0.734375 0.101562 " clip-rule="nonzero"/></clipPath><clipPath id="fe0978865e"><rect x="0" width="8" y="0" height="7"/></clipPath><clipPath id="122f6c21fd"><path d="M 3.917969 14.300781 L 10.265625 14.300781 L 10.265625 20.722656 L 3.917969 20.722656 Z M 3.917969 14.300781 " clip-rule="nonzero"/></clipPath><clipPath id="10c476d54b"><path d="M 0.917969 0.300781 L 7.265625 0.300781 L 7.265625 6.722656 L 0.917969 6.722656 Z M 0.917969 0.300781 " clip-rule="nonzero"/></clipPath><clipPath id="724801972d"><rect x="0" width="8" y="0" height="7"/></clipPath></defs><g clip-path="url(#a84b7537ee)"><path fill="#ffffff" d="M 0.488281 0 L 35.511719 0 L 35.511719 35.027344 L 0.488281 35.027344 Z M 0.488281 0 " fill-opacity="1" fill-rule="nonzero"/><path fill="#ffffff" d="M 0.488281 0 L 35.511719 0 L 35.511719 35.027344 L 0.488281 35.027344 Z M 0.488281 0 " fill-opacity="1" fill-rule="nonzero"/><g transform="matrix(1, 0, 0, 1, 0.000000000000000056, 0.000000000000010582)"><g clip-path="url(#e5529e4fac)"><g clip-path="url(#885c1fe136)"><path fill="#000000" d="M 0.488281 0 L 35.511719 0 L 35.511719 35.027344 L 0.488281 35.027344 Z M 0.488281 0 " fill-opacity="1" fill-rule="nonzero"/></g></g></g></g><g clip-path="url(#11db34af02)"><g transform="matrix(1, 0, 0, 1, 25, 14)"><g clip-path="url(#39ecbce875)"><g clip-path="url(#e690feaff5)"><path fill="#ffffff" d="M 0.734375 0.300781 L 7.011719 0.300781 L 7.011719 6.726562 L 0.734375 6.726562 Z M 0.734375 0.300781 " fill-opacity="1" fill-rule="nonzero"/></g></g></g></g><g clip-path="url(#59921fa293)"><g transform="matrix(1, 0, 0, 1, 14, 25)"><g clip-path="url(#26f1b17e9e)"><g clip-path="url(#4849471ede)"><path fill="#ffffff" d="M 0.863281 0.101562 L 7.285156 0.101562 L 7.285156 6.523438 L 0.863281 6.523438 Z M 0.863281 0.101562 " fill-opacity="1" fill-rule="nonzero"/></g></g></g></g><g clip-path="url(#501bda9c00)"><g transform="matrix(1, 0, 0, 1, 3, 3)"><g clip-path="url(#eb53ed25a2)"><g clip-path="url(#0ae8d55bf8)"><path fill="#ffffff" d="M 0.988281 0.503906 L 7.265625 0.503906 L 7.265625 6.925781 L 0.988281 6.925781 Z M 0.988281 0.503906 " fill-opacity="1" fill-rule="nonzero"/></g></g></g></g><g clip-path="url(#b6f369fdf2)"><g transform="matrix(1, 0, 0, 1, 14, 3)"><g clip-path="url(#444d9ffb8b)"><g clip-path="url(#8c85c825b1)"><path fill="#ffffff" d="M 0.863281 0.503906 L 7.136719 0.503906 L 7.136719 6.925781 L 0.863281 6.925781 Z M 0.863281 0.503906 " fill-opacity="1" fill-rule="nonzero"/></g></g></g></g><g clip-path="url(#a51d5d9463)"><g transform="matrix(1, 0, 0, 1, 25, 25)"><g clip-path="url(#fe0978865e)"><g clip-path="url(#6229320d52)"><path fill="#ffffff" d="M 0.734375 0.101562 L 7.011719 0.101562 L 7.011719 6.527344 L 0.734375 6.527344 Z M 0.734375 0.101562 " fill-opacity="1" fill-rule="nonzero"/></g></g></g></g><g clip-path="url(#122f6c21fd)"><g transform="matrix(1, 0, 0, 1, 3, 14)"><g clip-path="url(#724801972d)"><g clip-path="url(#10c476d54b)"><path fill="#ffffff" d="M 0.917969 0.300781 L 7.265625 0.300781 L 7.265625 6.726562 L 0.917969 6.726562 Z M 0.917969 0.300781 " fill-opacity="1" fill-rule="nonzero"/></g></g></g></g></svg>